%TF.GenerationSoftware,KiCad,Pcbnew,(5.1.7)-1*%
%TF.CreationDate,2020-11-03T00:11:48-08:00*%
%TF.ProjectId,testpcb,74657374-7063-4622-9e6b-696361645f70,rev?*%
%TF.SameCoordinates,Original*%
%TF.FileFunction,Copper,L1,Top*%
%TF.FilePolarity,Positive*%
%FSLAX46Y46*%
G04 Gerber Fmt 4.6, Leading zero omitted, Abs format (unit mm)*
G04 Created by KiCad (PCBNEW (5.1.7)-1) date 2020-11-03 00:11:48*
%MOMM*%
%LPD*%
G01*
G04 APERTURE LIST*
%TA.AperFunction,SMDPad,CuDef*%
%ADD10R,1.500000X1.000000*%
%TD*%
%TA.AperFunction,ComponentPad*%
%ADD11O,2.000000X1.600000*%
%TD*%
%TA.AperFunction,ComponentPad*%
%ADD12R,2.000000X2.000000*%
%TD*%
%TA.AperFunction,Conductor*%
%ADD13C,0.250000*%
%TD*%
G04 APERTURE END LIST*
D10*
%TO.P,devon,1*%
%TO.N,+3V3*%
X52160000Y-124130000D03*
%TO.P,devon,2*%
%TO.N,Net-(LED_Isabelle1-Pad4)*%
X52160000Y-127330000D03*
%TO.P,devon,4*%
%TO.N,Net-(amrita_led1-Pad2)*%
X57060000Y-124130000D03*
%TO.P,devon,3*%
%TO.N,GND*%
X57060000Y-127330000D03*
%TD*%
D11*
%TO.P,U1,16*%
%TO.N,Net-(U1-Pad16)*%
X48260000Y-116840000D03*
%TO.P,U1,15*%
%TO.N,Net-(U1-Pad15)*%
X48260000Y-119380000D03*
%TO.P,U1,14*%
%TO.N,Net-(U1-Pad14)*%
X48260000Y-121920000D03*
%TO.P,U1,13*%
%TO.N,Net-(U1-Pad13)*%
X48260000Y-124460000D03*
%TO.P,U1,12*%
%TO.N,Net-(R2-Pad1)*%
X48260000Y-127000000D03*
%TO.P,U1,11*%
%TO.N,Net-(R3-Pad1)*%
X48260000Y-129540000D03*
%TO.P,U1,10*%
%TO.N,GND*%
X48260000Y-132080000D03*
%TO.P,U1,9*%
%TO.N,Net-(U1-Pad9)*%
X48260000Y-134620000D03*
%TO.P,U1,8*%
%TO.N,+3V3*%
X71120000Y-134620000D03*
%TO.P,U1,7*%
%TO.N,Net-(U1-Pad7)*%
X71120000Y-132080000D03*
%TO.P,U1,6*%
%TO.N,Net-(U1-Pad6)*%
X71120000Y-129540000D03*
%TO.P,U1,5*%
%TO.N,led_sig_in*%
X71120000Y-127000000D03*
%TO.P,U1,4*%
%TO.N,Net-(U1-Pad4)*%
X71120000Y-124460000D03*
%TO.P,U1,3*%
%TO.N,Net-(R1-Pad1)*%
X71120000Y-121920000D03*
D12*
%TO.P,U1,1*%
%TO.N,Net-(U1-Pad1)*%
X71120000Y-116840000D03*
D11*
%TO.P,U1,2*%
%TO.N,Net-(U1-Pad2)*%
X71120000Y-119380000D03*
%TD*%
D10*
%TO.P,patrick,1*%
%TO.N,+3V3*%
X62320000Y-103810000D03*
%TO.P,patrick,2*%
%TO.N,Net-(billa_led1-Pad4)*%
X62320000Y-107010000D03*
%TO.P,patrick,4*%
%TO.N,Net-(gil_led1-Pad2)*%
X67220000Y-103810000D03*
%TO.P,patrick,3*%
%TO.N,GND*%
X67220000Y-107010000D03*
%TD*%
%TO.P,owen,1*%
%TO.N,+3V3*%
X52160000Y-103810000D03*
%TO.P,owen,2*%
%TO.N,Net-(amrita_led1-Pad4)*%
X52160000Y-107010000D03*
%TO.P,owen,4*%
%TO.N,Net-(chinmai_led1-Pad2)*%
X57060000Y-103810000D03*
%TO.P,owen,3*%
%TO.N,GND*%
X57060000Y-107010000D03*
%TD*%
%TO.P,keon,1*%
%TO.N,+3V3*%
X62320000Y-134290000D03*
%TO.P,keon,2*%
%TO.N,Net-(keon_led1-Pad2)*%
X62320000Y-137490000D03*
%TO.P,keon,4*%
%TO.N,Net-(LED_Isabelle1-Pad2)*%
X67220000Y-134290000D03*
%TO.P,keon,3*%
%TO.N,GND*%
X67220000Y-137490000D03*
%TD*%
%TO.P,isabelle,1*%
%TO.N,+3V3*%
X52160000Y-134290000D03*
%TO.P,isabelle,2*%
%TO.N,Net-(LED_Isabelle1-Pad2)*%
X52160000Y-137490000D03*
%TO.P,isabelle,4*%
%TO.N,Net-(LED_Isabelle1-Pad4)*%
X57060000Y-134290000D03*
%TO.P,isabelle,3*%
%TO.N,GND*%
X57060000Y-137490000D03*
%TD*%
%TO.P,gil,1*%
%TO.N,+3V3*%
X62320000Y-113970000D03*
%TO.P,gil,2*%
%TO.N,Net-(gil_led1-Pad2)*%
X62320000Y-117170000D03*
%TO.P,gil,4*%
%TO.N,Net-(gil_led1-Pad4)*%
X67220000Y-113970000D03*
%TO.P,gil,3*%
%TO.N,GND*%
X67220000Y-117170000D03*
%TD*%
%TO.P,chinmai,1*%
%TO.N,+3V3*%
X52160000Y-93650000D03*
%TO.P,chinmai,2*%
%TO.N,Net-(chinmai_led1-Pad2)*%
X52160000Y-96850000D03*
%TO.P,chinmai,4*%
%TO.N,led_sig_in*%
X57060000Y-93650000D03*
%TO.P,chinmai,3*%
%TO.N,GND*%
X57060000Y-96850000D03*
%TD*%
%TO.P,billa,1*%
%TO.N,+3V3*%
X62320000Y-93650000D03*
%TO.P,billa,2*%
%TO.N,Net-(billa_led1-Pad2)*%
X62320000Y-96850000D03*
%TO.P,billa,4*%
%TO.N,Net-(billa_led1-Pad4)*%
X67220000Y-93650000D03*
%TO.P,billa,3*%
%TO.N,GND*%
X67220000Y-96850000D03*
%TD*%
%TO.P,amrita,1*%
%TO.N,+3V3*%
X52160000Y-113970000D03*
%TO.P,amrita,2*%
%TO.N,Net-(amrita_led1-Pad2)*%
X52160000Y-117170000D03*
%TO.P,amrita,4*%
%TO.N,Net-(amrita_led1-Pad4)*%
X57060000Y-113970000D03*
%TO.P,amrita,3*%
%TO.N,GND*%
X57060000Y-117170000D03*
%TD*%
%TO.P,vasco,1*%
%TO.N,+3V3*%
X62320000Y-124130000D03*
%TO.P,vasco,2*%
%TO.N,Net-(gil_led1-Pad4)*%
X62320000Y-127330000D03*
%TO.P,vasco,4*%
%TO.N,Net-(keon_led1-Pad2)*%
X67220000Y-124130000D03*
%TO.P,vasco,3*%
%TO.N,GND*%
X67220000Y-127330000D03*
%TD*%
D13*
%TO.N,+3V3*%
X52160000Y-134290000D02*
X51740000Y-134290000D01*
X51084999Y-133214999D02*
X52160000Y-134290000D01*
X52160000Y-93650000D02*
X51084999Y-94725001D01*
X61244999Y-133214999D02*
X61244999Y-125205001D01*
X61244999Y-125205001D02*
X62320000Y-124130000D01*
X62320000Y-134290000D02*
X61244999Y-133214999D01*
X61244999Y-115045001D02*
X62320000Y-113970000D01*
X61244999Y-123054999D02*
X61244999Y-115045001D01*
X62320000Y-124130000D02*
X61244999Y-123054999D01*
X61244999Y-104885001D02*
X62320000Y-103810000D01*
X61244999Y-112894999D02*
X61244999Y-104885001D01*
X62320000Y-113970000D02*
X61244999Y-112894999D01*
X62320000Y-103810000D02*
X61900000Y-103810000D01*
X61244999Y-103154999D02*
X61244999Y-94725001D01*
X61900000Y-103810000D02*
X61244999Y-103154999D01*
X51740000Y-124130000D02*
X51084999Y-123474999D01*
X52160000Y-124130000D02*
X51740000Y-124130000D01*
X51084999Y-123474999D02*
X51084999Y-133214999D01*
X51740000Y-113970000D02*
X51084999Y-113314999D01*
X52160000Y-113970000D02*
X51740000Y-113970000D01*
X51084999Y-113314999D02*
X51084999Y-123474999D01*
X51130000Y-103810000D02*
X51084999Y-103855001D01*
X52160000Y-103810000D02*
X51130000Y-103810000D01*
X51084999Y-103855001D02*
X51084999Y-113314999D01*
X51084999Y-94725001D02*
X51084999Y-103855001D01*
X62320000Y-93650000D02*
X61244999Y-94725001D01*
X71120000Y-139700000D02*
X71120000Y-134620000D01*
X49530000Y-139700000D02*
X71120000Y-139700000D01*
X49530000Y-136920000D02*
X49530000Y-139700000D01*
X52160000Y-134290000D02*
X49530000Y-136920000D01*
X72895020Y-96853608D02*
X72895020Y-132844980D01*
X56500008Y-92374990D02*
X68416402Y-92374990D01*
X72895020Y-132844980D02*
X71120000Y-134620000D01*
X55984999Y-94410001D02*
X55984999Y-92889999D01*
X68416402Y-92374990D02*
X72895020Y-96853608D01*
X56049999Y-94475001D02*
X55984999Y-94410001D01*
X61494999Y-94475001D02*
X56049999Y-94475001D01*
X55984999Y-92889999D02*
X56500008Y-92374990D01*
X62320000Y-93650000D02*
X61494999Y-94475001D01*
%TO.N,led_sig_in*%
X72445010Y-125674990D02*
X71120000Y-127000000D01*
X72445010Y-97040008D02*
X72445010Y-125674990D01*
X68230001Y-92824999D02*
X72445010Y-97040008D01*
X57885001Y-92824999D02*
X68230001Y-92824999D01*
X57060000Y-93650000D02*
X57885001Y-92824999D01*
%TO.N,GND*%
X67220000Y-127330000D02*
X67640000Y-127330000D01*
X67220000Y-127330000D02*
X68250000Y-127330000D01*
X68250000Y-127330000D02*
X68295001Y-127284999D01*
X68250000Y-96850000D02*
X67220000Y-96850000D01*
X68295001Y-96804999D02*
X68250000Y-96850000D01*
X68250000Y-107010000D02*
X68295001Y-106964999D01*
X67220000Y-107010000D02*
X68250000Y-107010000D01*
X68295001Y-106964999D02*
X68295001Y-96804999D01*
X67220000Y-117170000D02*
X68250000Y-117170000D01*
X68250000Y-117170000D02*
X68295001Y-117124999D01*
X68295001Y-117124999D02*
X68295001Y-106964999D01*
X68295001Y-127284999D02*
X68295001Y-117124999D01*
X57060000Y-137490000D02*
X58090000Y-137490000D01*
X58090000Y-137490000D02*
X58420000Y-137160000D01*
X57390000Y-96520000D02*
X57060000Y-96850000D01*
X58420000Y-96520000D02*
X57390000Y-96520000D01*
X58090000Y-107010000D02*
X58420000Y-106680000D01*
X57060000Y-107010000D02*
X58090000Y-107010000D01*
X58420000Y-106680000D02*
X58420000Y-96520000D01*
X57060000Y-117170000D02*
X58090000Y-117170000D01*
X58090000Y-117170000D02*
X58420000Y-116840000D01*
X58420000Y-116840000D02*
X58420000Y-106680000D01*
X58090000Y-127330000D02*
X58420000Y-127000000D01*
X57060000Y-127330000D02*
X58090000Y-127330000D01*
X58420000Y-127000000D02*
X58420000Y-116840000D01*
X58420000Y-137160000D02*
X58420000Y-127000000D01*
X67220000Y-137490000D02*
X68250000Y-137490000D01*
X68295001Y-127375001D02*
X68250000Y-127330000D01*
X68295001Y-137444999D02*
X68295001Y-127375001D01*
X68250000Y-137490000D02*
X68295001Y-137444999D01*
X67220000Y-137490000D02*
X67220000Y-137250000D01*
X65944989Y-138765011D02*
X67220000Y-137490000D01*
X51600009Y-138765011D02*
X65944989Y-138765011D01*
X51084999Y-138250001D02*
X51600009Y-138765011D01*
X51084999Y-136729999D02*
X51084999Y-138250001D01*
X51149999Y-136664999D02*
X51084999Y-136729999D01*
X56234999Y-136664999D02*
X51149999Y-136664999D01*
X57060000Y-137490000D02*
X56234999Y-136664999D01*
X53170001Y-92824999D02*
X54610000Y-94264998D01*
X51149999Y-92824999D02*
X53170001Y-92824999D01*
X49585010Y-94389988D02*
X51149999Y-92824999D01*
X49585010Y-130754990D02*
X49585010Y-94389988D01*
X48260000Y-132080000D02*
X49585010Y-130754990D01*
X54610000Y-94400000D02*
X57060000Y-96850000D01*
X54610000Y-94264998D02*
X54610000Y-94400000D01*
%TO.N,Net-(LED_Isabelle1-Pad2)*%
X67220000Y-134425002D02*
X67220000Y-134290000D01*
X63330001Y-138315001D02*
X67220000Y-134425002D01*
X52235001Y-138315001D02*
X63330001Y-138315001D01*
X52160000Y-138240000D02*
X52235001Y-138315001D01*
X52160000Y-137490000D02*
X52160000Y-138240000D01*
%TO.N,Net-(amrita_led1-Pad2)*%
X52160000Y-117170000D02*
X52160000Y-122010000D01*
X54280000Y-124130000D02*
X57060000Y-124130000D01*
X52160000Y-122010000D02*
X54280000Y-124130000D01*
%TO.N,Net-(amrita_led1-Pad4)*%
X52160000Y-107010000D02*
X52160000Y-111850000D01*
X54280000Y-113970000D02*
X57060000Y-113970000D01*
X52160000Y-111850000D02*
X54280000Y-113970000D01*
%TO.N,Net-(billa_led1-Pad4)*%
X66144999Y-94725001D02*
X67220000Y-93650000D01*
X66144999Y-102435001D02*
X66144999Y-94725001D01*
X62320000Y-106260000D02*
X66144999Y-102435001D01*
X62320000Y-107010000D02*
X62320000Y-106260000D01*
%TO.N,Net-(chinmai_led1-Pad2)*%
X52160000Y-96850000D02*
X52160000Y-101510000D01*
X54460000Y-103810000D02*
X57060000Y-103810000D01*
X52160000Y-101510000D02*
X54460000Y-103810000D01*
%TO.N,Net-(LED_Isabelle1-Pad4)*%
X52160000Y-127330000D02*
X52160000Y-132170000D01*
X54280000Y-134290000D02*
X57060000Y-134290000D01*
X52160000Y-132170000D02*
X54280000Y-134290000D01*
%TO.N,Net-(gil_led1-Pad2)*%
X66144999Y-104885001D02*
X67220000Y-103810000D01*
X66144999Y-112595001D02*
X66144999Y-104885001D01*
X62320000Y-116420000D02*
X66144999Y-112595001D01*
X62320000Y-117170000D02*
X62320000Y-116420000D01*
%TO.N,Net-(gil_led1-Pad4)*%
X66144999Y-115045001D02*
X67220000Y-113970000D01*
X66144999Y-122755001D02*
X66144999Y-115045001D01*
X62320000Y-126580000D02*
X66144999Y-122755001D01*
X62320000Y-127330000D02*
X62320000Y-126580000D01*
%TO.N,Net-(keon_led1-Pad2)*%
X66144999Y-125205001D02*
X67220000Y-124130000D01*
X66144999Y-132915001D02*
X66144999Y-125205001D01*
X62320000Y-136740000D02*
X66144999Y-132915001D01*
X62320000Y-137490000D02*
X62320000Y-136740000D01*
%TD*%
M02*
