%TF.GenerationSoftware,KiCad,Pcbnew,(5.1.7)-1*%
%TF.CreationDate,2020-11-03T00:11:48-08:00*%
%TF.ProjectId,testpcb,74657374-7063-4622-9e6b-696361645f70,rev?*%
%TF.SameCoordinates,Original*%
%TF.FileFunction,Legend,Bot*%
%TF.FilePolarity,Positive*%
%FSLAX46Y46*%
G04 Gerber Fmt 4.6, Leading zero omitted, Abs format (unit mm)*
G04 Created by KiCad (PCBNEW (5.1.7)-1) date 2020-11-03 00:11:48*
%MOMM*%
%LPD*%
G01*
G04 APERTURE LIST*
%ADD10C,0.120000*%
%ADD11C,0.150000*%
%ADD12R,1.450000X1.000000*%
%ADD13O,2.000000X1.600000*%
%ADD14R,2.000000X2.000000*%
G04 APERTURE END LIST*
D10*
%TO.C,brightness*%
X45910000Y-87050000D02*
X46835000Y-87050000D01*
X45910000Y-90750000D02*
X50610000Y-90750000D01*
X50710000Y-89175000D02*
X50710000Y-88625000D01*
X45810000Y-89175000D02*
X45810000Y-88625000D01*
X49685000Y-87050000D02*
X50610000Y-87050000D01*
%TO.C,:P*%
X57340000Y-87050000D02*
X58265000Y-87050000D01*
X57340000Y-90750000D02*
X62040000Y-90750000D01*
X62140000Y-89175000D02*
X62140000Y-88625000D01*
X57240000Y-89175000D02*
X57240000Y-88625000D01*
X61115000Y-87050000D02*
X62040000Y-87050000D01*
%TO.C,color*%
X68770000Y-87050000D02*
X69695000Y-87050000D01*
X68770000Y-90750000D02*
X73470000Y-90750000D01*
X73570000Y-89175000D02*
X73570000Y-88625000D01*
X68670000Y-89175000D02*
X68670000Y-88625000D01*
X72545000Y-87050000D02*
X73470000Y-87050000D01*
%TO.C,r_main*%
X58192936Y-92175000D02*
X58647064Y-92175000D01*
X58192936Y-90705000D02*
X58647064Y-90705000D01*
%TO.C,r_brightness*%
X46762936Y-92175000D02*
X47217064Y-92175000D01*
X46762936Y-90705000D02*
X47217064Y-90705000D01*
%TO.C,r_color*%
X69622936Y-92175000D02*
X70077064Y-92175000D01*
X69622936Y-90705000D02*
X70077064Y-90705000D01*
%TO.C,U1*%
X48890000Y-108500000D02*
G75*
G03*
X46760000Y-110630000I0J-2130000D01*
G01*
X72620000Y-110630000D02*
G75*
G03*
X70490000Y-108500000I-2130000J0D01*
G01*
X70080000Y-142960000D02*
X46760000Y-142960000D01*
X72620000Y-136060000D02*
X72620000Y-110630000D01*
X46760000Y-142960000D02*
X46760000Y-110630000D01*
X48880000Y-108500000D02*
X70490000Y-108500000D01*
D11*
G36*
X73660000Y-116205000D02*
G01*
X73660000Y-117475000D01*
X73025000Y-116840000D01*
X73660000Y-116205000D01*
G37*
X73660000Y-116205000D02*
X73660000Y-117475000D01*
X73025000Y-116840000D01*
X73660000Y-116205000D01*
D10*
X72620000Y-136060000D02*
X70080000Y-136060000D01*
X70080000Y-136060000D02*
X70080000Y-142960000D01*
%TO.C,brightness*%
D11*
X51902857Y-95702380D02*
X51902857Y-94702380D01*
X51902857Y-95083333D02*
X51807619Y-95035714D01*
X51617142Y-95035714D01*
X51521904Y-95083333D01*
X51474285Y-95130952D01*
X51426666Y-95226190D01*
X51426666Y-95511904D01*
X51474285Y-95607142D01*
X51521904Y-95654761D01*
X51617142Y-95702380D01*
X51807619Y-95702380D01*
X51902857Y-95654761D01*
X50998095Y-95702380D02*
X50998095Y-95035714D01*
X50998095Y-95226190D02*
X50950476Y-95130952D01*
X50902857Y-95083333D01*
X50807619Y-95035714D01*
X50712380Y-95035714D01*
X50379047Y-95702380D02*
X50379047Y-95035714D01*
X50379047Y-94702380D02*
X50426666Y-94750000D01*
X50379047Y-94797619D01*
X50331428Y-94750000D01*
X50379047Y-94702380D01*
X50379047Y-94797619D01*
X49474285Y-95035714D02*
X49474285Y-95845238D01*
X49521904Y-95940476D01*
X49569523Y-95988095D01*
X49664761Y-96035714D01*
X49807619Y-96035714D01*
X49902857Y-95988095D01*
X49474285Y-95654761D02*
X49569523Y-95702380D01*
X49760000Y-95702380D01*
X49855238Y-95654761D01*
X49902857Y-95607142D01*
X49950476Y-95511904D01*
X49950476Y-95226190D01*
X49902857Y-95130952D01*
X49855238Y-95083333D01*
X49760000Y-95035714D01*
X49569523Y-95035714D01*
X49474285Y-95083333D01*
X48998095Y-95702380D02*
X48998095Y-94702380D01*
X48569523Y-95702380D02*
X48569523Y-95178571D01*
X48617142Y-95083333D01*
X48712380Y-95035714D01*
X48855238Y-95035714D01*
X48950476Y-95083333D01*
X48998095Y-95130952D01*
X48236190Y-95035714D02*
X47855238Y-95035714D01*
X48093333Y-94702380D02*
X48093333Y-95559523D01*
X48045714Y-95654761D01*
X47950476Y-95702380D01*
X47855238Y-95702380D01*
X47521904Y-95035714D02*
X47521904Y-95702380D01*
X47521904Y-95130952D02*
X47474285Y-95083333D01*
X47379047Y-95035714D01*
X47236190Y-95035714D01*
X47140952Y-95083333D01*
X47093333Y-95178571D01*
X47093333Y-95702380D01*
X46236190Y-95654761D02*
X46331428Y-95702380D01*
X46521904Y-95702380D01*
X46617142Y-95654761D01*
X46664761Y-95559523D01*
X46664761Y-95178571D01*
X46617142Y-95083333D01*
X46521904Y-95035714D01*
X46331428Y-95035714D01*
X46236190Y-95083333D01*
X46188571Y-95178571D01*
X46188571Y-95273809D01*
X46664761Y-95369047D01*
X45807619Y-95654761D02*
X45712380Y-95702380D01*
X45521904Y-95702380D01*
X45426666Y-95654761D01*
X45379047Y-95559523D01*
X45379047Y-95511904D01*
X45426666Y-95416666D01*
X45521904Y-95369047D01*
X45664761Y-95369047D01*
X45760000Y-95321428D01*
X45807619Y-95226190D01*
X45807619Y-95178571D01*
X45760000Y-95083333D01*
X45664761Y-95035714D01*
X45521904Y-95035714D01*
X45426666Y-95083333D01*
X44998095Y-95654761D02*
X44902857Y-95702380D01*
X44712380Y-95702380D01*
X44617142Y-95654761D01*
X44569523Y-95559523D01*
X44569523Y-95511904D01*
X44617142Y-95416666D01*
X44712380Y-95369047D01*
X44855238Y-95369047D01*
X44950476Y-95321428D01*
X44998095Y-95226190D01*
X44998095Y-95178571D01*
X44950476Y-95083333D01*
X44855238Y-95035714D01*
X44712380Y-95035714D01*
X44617142Y-95083333D01*
%TO.C,:P*%
X60047142Y-94750000D02*
X60094761Y-94797619D01*
X60142380Y-94750000D01*
X60094761Y-94702380D01*
X60047142Y-94750000D01*
X60142380Y-94750000D01*
X59523333Y-94750000D02*
X59570952Y-94797619D01*
X59618571Y-94750000D01*
X59570952Y-94702380D01*
X59523333Y-94750000D01*
X59618571Y-94750000D01*
X60142380Y-95226190D02*
X59142380Y-95226190D01*
X59142380Y-95607142D01*
X59190000Y-95702380D01*
X59237619Y-95750000D01*
X59332857Y-95797619D01*
X59475714Y-95797619D01*
X59570952Y-95750000D01*
X59618571Y-95702380D01*
X59666190Y-95607142D01*
X59666190Y-95226190D01*
%TO.C,color*%
X72358095Y-95654761D02*
X72453333Y-95702380D01*
X72643809Y-95702380D01*
X72739047Y-95654761D01*
X72786666Y-95607142D01*
X72834285Y-95511904D01*
X72834285Y-95226190D01*
X72786666Y-95130952D01*
X72739047Y-95083333D01*
X72643809Y-95035714D01*
X72453333Y-95035714D01*
X72358095Y-95083333D01*
X71786666Y-95702380D02*
X71881904Y-95654761D01*
X71929523Y-95607142D01*
X71977142Y-95511904D01*
X71977142Y-95226190D01*
X71929523Y-95130952D01*
X71881904Y-95083333D01*
X71786666Y-95035714D01*
X71643809Y-95035714D01*
X71548571Y-95083333D01*
X71500952Y-95130952D01*
X71453333Y-95226190D01*
X71453333Y-95511904D01*
X71500952Y-95607142D01*
X71548571Y-95654761D01*
X71643809Y-95702380D01*
X71786666Y-95702380D01*
X70881904Y-95702380D02*
X70977142Y-95654761D01*
X71024761Y-95559523D01*
X71024761Y-94702380D01*
X70358095Y-95702380D02*
X70453333Y-95654761D01*
X70500952Y-95607142D01*
X70548571Y-95511904D01*
X70548571Y-95226190D01*
X70500952Y-95130952D01*
X70453333Y-95083333D01*
X70358095Y-95035714D01*
X70215238Y-95035714D01*
X70120000Y-95083333D01*
X70072380Y-95130952D01*
X70024761Y-95226190D01*
X70024761Y-95511904D01*
X70072380Y-95607142D01*
X70120000Y-95654761D01*
X70215238Y-95702380D01*
X70358095Y-95702380D01*
X69596190Y-95702380D02*
X69596190Y-95035714D01*
X69596190Y-95226190D02*
X69548571Y-95130952D01*
X69500952Y-95083333D01*
X69405714Y-95035714D01*
X69310476Y-95035714D01*
%TD*%
%LPC*%
D12*
%TO.C,brightness*%
X45685000Y-88050000D03*
X50835000Y-88050000D03*
X50835000Y-89750000D03*
X45685000Y-89750000D03*
%TD*%
%TO.C,:P*%
X57115000Y-88050000D03*
X62265000Y-88050000D03*
X62265000Y-89750000D03*
X57115000Y-89750000D03*
%TD*%
%TO.C,color*%
X68545000Y-88050000D03*
X73695000Y-88050000D03*
X73695000Y-89750000D03*
X68545000Y-89750000D03*
%TD*%
%TO.C,r_main*%
G36*
G01*
X58820000Y-91890001D02*
X58820000Y-90989999D01*
G75*
G02*
X59069999Y-90740000I249999J0D01*
G01*
X59770001Y-90740000D01*
G75*
G02*
X60020000Y-90989999I0J-249999D01*
G01*
X60020000Y-91890001D01*
G75*
G02*
X59770001Y-92140000I-249999J0D01*
G01*
X59069999Y-92140000D01*
G75*
G02*
X58820000Y-91890001I0J249999D01*
G01*
G37*
G36*
G01*
X56820000Y-91890001D02*
X56820000Y-90989999D01*
G75*
G02*
X57069999Y-90740000I249999J0D01*
G01*
X57770001Y-90740000D01*
G75*
G02*
X58020000Y-90989999I0J-249999D01*
G01*
X58020000Y-91890001D01*
G75*
G02*
X57770001Y-92140000I-249999J0D01*
G01*
X57069999Y-92140000D01*
G75*
G02*
X56820000Y-91890001I0J249999D01*
G01*
G37*
%TD*%
%TO.C,r_brightness*%
G36*
G01*
X47390000Y-91890001D02*
X47390000Y-90989999D01*
G75*
G02*
X47639999Y-90740000I249999J0D01*
G01*
X48340001Y-90740000D01*
G75*
G02*
X48590000Y-90989999I0J-249999D01*
G01*
X48590000Y-91890001D01*
G75*
G02*
X48340001Y-92140000I-249999J0D01*
G01*
X47639999Y-92140000D01*
G75*
G02*
X47390000Y-91890001I0J249999D01*
G01*
G37*
G36*
G01*
X45390000Y-91890001D02*
X45390000Y-90989999D01*
G75*
G02*
X45639999Y-90740000I249999J0D01*
G01*
X46340001Y-90740000D01*
G75*
G02*
X46590000Y-90989999I0J-249999D01*
G01*
X46590000Y-91890001D01*
G75*
G02*
X46340001Y-92140000I-249999J0D01*
G01*
X45639999Y-92140000D01*
G75*
G02*
X45390000Y-91890001I0J249999D01*
G01*
G37*
%TD*%
%TO.C,r_color*%
G36*
G01*
X70250000Y-91890001D02*
X70250000Y-90989999D01*
G75*
G02*
X70499999Y-90740000I249999J0D01*
G01*
X71200001Y-90740000D01*
G75*
G02*
X71450000Y-90989999I0J-249999D01*
G01*
X71450000Y-91890001D01*
G75*
G02*
X71200001Y-92140000I-249999J0D01*
G01*
X70499999Y-92140000D01*
G75*
G02*
X70250000Y-91890001I0J249999D01*
G01*
G37*
G36*
G01*
X68250000Y-91890001D02*
X68250000Y-90989999D01*
G75*
G02*
X68499999Y-90740000I249999J0D01*
G01*
X69200001Y-90740000D01*
G75*
G02*
X69450000Y-90989999I0J-249999D01*
G01*
X69450000Y-91890001D01*
G75*
G02*
X69200001Y-92140000I-249999J0D01*
G01*
X68499999Y-92140000D01*
G75*
G02*
X68250000Y-91890001I0J249999D01*
G01*
G37*
%TD*%
D13*
%TO.C,U1*%
X48260000Y-116840000D03*
X48260000Y-119380000D03*
X48260000Y-121920000D03*
X48260000Y-124460000D03*
X48260000Y-127000000D03*
X48260000Y-129540000D03*
X48260000Y-132080000D03*
X48260000Y-134620000D03*
X71120000Y-134620000D03*
X71120000Y-132080000D03*
X71120000Y-129540000D03*
X71120000Y-127000000D03*
X71120000Y-124460000D03*
X71120000Y-121920000D03*
D14*
X71120000Y-116840000D03*
D13*
X71120000Y-119380000D03*
%TD*%
M02*
