%TF.GenerationSoftware,KiCad,Pcbnew,(5.1.7)-1*%
%TF.CreationDate,2020-11-03T00:11:48-08:00*%
%TF.ProjectId,testpcb,74657374-7063-4622-9e6b-696361645f70,rev?*%
%TF.SameCoordinates,Original*%
%TF.FileFunction,Paste,Top*%
%TF.FilePolarity,Positive*%
%FSLAX46Y46*%
G04 Gerber Fmt 4.6, Leading zero omitted, Abs format (unit mm)*
G04 Created by KiCad (PCBNEW (5.1.7)-1) date 2020-11-03 00:11:48*
%MOMM*%
%LPD*%
G01*
G04 APERTURE LIST*
%ADD10R,1.500000X1.000000*%
G04 APERTURE END LIST*
D10*
%TO.C,devon*%
X52160000Y-124130000D03*
X52160000Y-127330000D03*
X57060000Y-124130000D03*
X57060000Y-127330000D03*
%TD*%
%TO.C,patrick*%
X62320000Y-103810000D03*
X62320000Y-107010000D03*
X67220000Y-103810000D03*
X67220000Y-107010000D03*
%TD*%
%TO.C,owen*%
X52160000Y-103810000D03*
X52160000Y-107010000D03*
X57060000Y-103810000D03*
X57060000Y-107010000D03*
%TD*%
%TO.C,keon*%
X62320000Y-134290000D03*
X62320000Y-137490000D03*
X67220000Y-134290000D03*
X67220000Y-137490000D03*
%TD*%
%TO.C,isabelle*%
X52160000Y-134290000D03*
X52160000Y-137490000D03*
X57060000Y-134290000D03*
X57060000Y-137490000D03*
%TD*%
%TO.C,gil*%
X62320000Y-113970000D03*
X62320000Y-117170000D03*
X67220000Y-113970000D03*
X67220000Y-117170000D03*
%TD*%
%TO.C,chinmai*%
X52160000Y-93650000D03*
X52160000Y-96850000D03*
X57060000Y-93650000D03*
X57060000Y-96850000D03*
%TD*%
%TO.C,billa*%
X62320000Y-93650000D03*
X62320000Y-96850000D03*
X67220000Y-93650000D03*
X67220000Y-96850000D03*
%TD*%
%TO.C,amrita*%
X52160000Y-113970000D03*
X52160000Y-117170000D03*
X57060000Y-113970000D03*
X57060000Y-117170000D03*
%TD*%
%TO.C,vasco*%
X62320000Y-124130000D03*
X62320000Y-127330000D03*
X67220000Y-124130000D03*
X67220000Y-127330000D03*
%TD*%
M02*
